<?xml version="1.0" standalone="no"?>
<!DOCTYPE svg PUBLIC "-//W3C//DTD SVG 20010904//EN"
 "http://www.w3.org/TR/2001/REC-SVG-20010904/DTD/svg10.dtd">
<svg version="1.0" xmlns="http://www.w3.org/2000/svg"
 width="180.000000pt" height="180.000000pt" viewBox="0 0 180.000000 180.000000"
 preserveAspectRatio="xMidYMid meet">
<metadata>
Created by potrace 1.11, written by Peter Selinger 2001-2013
</metadata>
<g transform="translate(0.000000,180.000000) scale(0.100000,-0.100000)"
fill="#000000" stroke="none">
<path d="M761 1793 c-1 -7 -11 -10 -25 -7 -14 2 -31 -2 -39 -10 -8 -8 -17 -12
-20 -9 -4 3 -14 2 -24 -2 -10 -5 -24 -9 -32 -11 -29 -6 -127 -48 -153 -66 -16
-11 -28 -17 -28 -13 0 3 -10 -3 -22 -15 -12 -11 -25 -20 -29 -20 -11 0 -65
-48 -133 -117 -69 -69 -89 -93 -81 -93 3 0 -3 -8 -13 -18 -24 -24 -103 -178
-95 -186 3 -3 0 -6 -7 -6 -7 0 -10 -3 -7 -6 3 -4 2 -15 -4 -26 -6 -11 -13 -29
-15 -41 -3 -12 -8 -33 -11 -47 -3 -14 -7 -35 -7 -47 -1 -13 -4 -23 -7 -23 -7
0 -3 -258 4 -301 3 -15 11 -37 18 -50 7 -13 11 -24 10 -24 -2 0 0 -17 4 -37 4
-21 11 -35 16 -33 4 3 6 -4 4 -15 -2 -11 0 -20 6 -20 5 0 9 -3 8 -7 -2 -16 14
-53 22 -53 5 0 9 -9 9 -20 0 -11 5 -20 10 -20 6 0 10 -7 10 -15 0 -8 5 -15 10
-15 6 0 10 -6 10 -13 0 -7 14 -27 30 -45 17 -18 30 -36 30 -39 0 -9 119 -122
149 -141 14 -9 31 -20 36 -25 36 -27 84 -54 89 -49 3 3 6 1 6 -4 0 -10 69 -40
83 -36 4 1 7 -2 7 -7 0 -8 9 -11 88 -27 17 -3 32 -10 32 -13 0 -4 10 -7 23 -6
12 1 27 -1 32 -5 10 -8 238 -6 309 2 21 3 41 9 45 14 3 5 15 9 26 10 39 2 85
17 85 27 0 6 3 8 6 4 3 -3 22 3 42 13 19 11 39 17 44 14 4 -3 8 2 8 10 0 10 6
13 15 10 8 -4 15 -1 15 5 0 6 7 11 15 11 9 0 18 7 21 15 4 8 13 15 20 15 8 0
31 15 51 32 19 18 41 32 47 30 6 -2 8 -1 5 3 -4 3 13 26 36 50 24 24 56 61 71
82 16 21 33 41 39 45 5 4 6 8 2 8 -4 0 6 20 23 45 17 25 27 45 23 45 -4 0 -3
4 4 8 6 4 13 16 15 27 1 11 7 23 11 26 4 3 10 18 13 34 3 16 8 33 12 39 3 6 8
17 9 24 8 32 12 47 14 47 12 0 18 271 7 335 -5 30 -11 64 -13 75 -2 11 -4 20
-5 20 -3 0 -12 39 -13 58 -1 9 -7 17 -14 17 -6 0 -10 9 -8 20 2 11 -3 24 -13
30 -9 5 -13 10 -8 10 5 0 2 7 -5 17 -8 9 -13 18 -11 20 3 4 -28 66 -37 73 -3
3 -18 23 -32 45 -25 38 -159 184 -159 172 0 -3 -15 8 -34 25 -19 16 -55 40
-80 52 -26 12 -43 26 -39 31 5 4 3 5 -3 2 -6 -3 -32 5 -59 18 -27 14 -57 25
-67 25 -10 0 -18 4 -18 8 0 5 -13 9 -30 10 -16 0 -35 4 -42 9 -7 4 -21 8 -30
9 -10 1 -19 3 -20 4 -9 8 -268 8 -263 0 4 -6 2 -10 -4 -10 -5 0 -12 6 -14 13
-4 8 -6 9 -6 0z"/>
</g>
</svg>
